<svg version="1.1" xmlns="http://www.w3.org/2000/svg" viewBox="0 0 1230.8333129882812 924.1666717529297" width="1230.8333129882812" height="924.1666717529297" filter="invert(93%) hue-rotate(180deg)" class="excalidraw-svg">
  <!-- svg-source:excalidraw -->
  
  <defs>
    <style class="style-fonts">
      
    </style>
    
  </defs>
  <rect x="0" y="0" width="1230.8333129882812" height="924.1666717529297" fill="#ffffff"/><g transform="translate(19.16668701171875 10) rotate(0 106.66668701171875 7.083335876464844)" stroke="none"><path fill="#1e1e1e" d="M 1.59,-2.99 Q 1.59,-2.99 5.15,-1.02 8.70,0.93 14.40,2.41 20.10,3.89 30.90,5.53 41.71,7.18 56.07,8.13 70.43,9.09 96.42,9.76 122.40,10.42 142.32,10.71 162.23,11.01 176.18,10.90 190.14,10.79 196.80,10.75 203.46,10.71 206.29,10.46 209.12,10.22 209.62,10.30 210.12,10.38 210.57,10.61 211.03,10.84 211.38,11.21 211.73,11.58 211.95,12.04 212.17,12.50 212.22,13.00 212.28,13.51 212.18,14.00 212.07,14.50 211.81,14.94 211.56,15.38 211.17,15.71 210.79,16.04 210.31,16.23 209.84,16.43 209.34,16.46 208.83,16.49 208.34,16.36 207.85,16.22 207.42,15.94 207.00,15.66 206.69,15.26 206.38,14.86 206.21,14.38 206.05,13.89 206.04,13.39 206.04,12.88 206.20,12.39 206.35,11.91 206.66,11.50 206.96,11.10 207.38,10.81 207.80,10.52 208.29,10.38 208.78,10.24 209.29,10.26 209.80,10.29 210.27,10.47 210.74,10.66 211.13,10.98 211.52,11.31 211.79,11.74 212.05,12.18 212.17,12.67 212.28,13.17 212.23,13.67 212.18,14.18 211.97,14.64 211.76,15.11 211.41,15.48 211.07,15.85 210.62,16.09 210.17,16.33 209.67,16.42 209.17,16.51 209.17,16.51 209.17,16.51 206.34,16.30 203.50,16.10 196.84,16.17 190.18,16.24 176.17,16.38 162.16,16.52 142.21,16.28 122.26,16.03 96.17,15.43 70.07,14.83 55.46,13.94 40.85,13.05 29.72,11.48 18.59,9.90 12.12,8.31 5.66,6.73 2.03,4.86 -1.59,2.99 -1.93,2.75 -2.26,2.52 -2.53,2.21 -2.80,1.90 -2.99,1.54 -3.18,1.18 -3.27,0.78 -3.37,0.38 -3.36,-0.02 -3.36,-0.43 -3.26,-0.82 -3.16,-1.22 -2.97,-1.58 -2.77,-1.94 -2.50,-2.25 -2.23,-2.55 -1.89,-2.78 -1.55,-3.01 -1.17,-3.15 -0.78,-3.29 -0.38,-3.34 0.02,-3.39 0.42,-3.34 0.83,-3.28 1.21,-3.14 1.59,-2.99 1.59,-2.99 L 1.59,-2.99 Z"/></g><g transform="translate(124.16668701171875 31.666671752929688) rotate(0 -13.75 82.08332824707031)" stroke="none"><path fill="#1e1e1e" d="M 3.26,1.21 Q 3.26,1.21 0.76,7.63 -1.74,14.06 -4.72,23.64 -7.71,33.22 -11.16,45.20 -14.62,57.19 -17.29,68.45 -19.96,79.71 -21.32,94.40 -22.69,109.08 -22.81,121.28 -22.93,133.48 -22.04,141.91 -21.15,150.34 -20.47,154.15 -19.79,157.96 -19.29,159.58 -18.79,161.19 -18.80,161.73 -18.80,162.26 -18.97,162.77 -19.14,163.27 -19.47,163.70 -19.79,164.12 -20.23,164.42 -20.68,164.72 -21.19,164.86 -21.71,165.00 -22.24,164.97 -22.77,164.94 -23.27,164.74 -23.77,164.55 -24.17,164.20 -24.58,163.85 -24.85,163.39 -25.13,162.93 -25.24,162.41 -25.36,161.89 -25.30,161.36 -25.24,160.83 -25.01,160.34 -24.79,159.86 -24.42,159.47 -24.05,159.08 -23.58,158.83 -23.10,158.58 -22.58,158.50 -22.05,158.41 -21.52,158.50 -20.99,158.59 -20.52,158.84 -20.05,159.09 -19.68,159.48 -19.32,159.87 -19.09,160.36 -18.87,160.84 -18.81,161.37 -18.76,161.90 -18.87,162.43 -18.99,162.95 -19.27,163.41 -19.54,163.86 -19.95,164.21 -20.36,164.55 -20.86,164.75 -21.35,164.95 -21.89,164.97 -22.42,165.00 -22.94,164.86 -23.45,164.71 -23.89,164.41 -24.33,164.11 -24.66,163.68 -24.98,163.26 -25.15,162.75 -25.32,162.24 -25.32,162.24 -25.32,162.25 -25.35,160.56 -25.39,158.86 -25.97,154.89 -26.55,150.92 -27.49,142.18 -28.43,133.44 -28.35,121.01 -28.27,108.57 -26.91,93.49 -25.55,78.42 -22.93,67.00 -20.31,55.58 -16.96,43.51 -13.61,31.43 -10.72,21.62 -7.84,11.80 -5.55,5.29 -3.26,-1.21 -3.07,-1.58 -2.88,-1.95 -2.60,-2.27 -2.33,-2.59 -1.98,-2.83 -1.64,-3.07 -1.25,-3.22 -0.86,-3.37 -0.44,-3.43 -0.02,-3.48 0.39,-3.43 0.80,-3.38 1.20,-3.24 1.59,-3.09 1.94,-2.86 2.29,-2.62 2.57,-2.31 2.85,-2.00 3.05,-1.63 3.24,-1.26 3.35,-0.85 3.45,-0.44 3.45,-0.02 3.46,0.39 3.36,0.80 3.26,1.21 3.26,1.21 L 3.26,1.21 Z"/></g><g transform="translate(208.3333740234375 103.33332824707031) rotate(0 -7.5 30.416671752929688)" stroke="none"><path fill="#1e1e1e" d="M 3.74,1.19 Q 3.74,1.19 1.66,7.13 -0.42,13.07 -2.29,19.57 -4.16,26.07 -5.71,32.63 -7.26,39.18 -8.67,45.34 -10.08,51.50 -10.70,55.59 -11.31,59.69 -11.50,60.20 -11.70,60.72 -12.04,61.14 -12.39,61.57 -12.86,61.86 -13.32,62.15 -13.85,62.28 -14.39,62.41 -14.93,62.36 -15.48,62.31 -15.98,62.09 -16.48,61.87 -16.89,61.50 -17.29,61.13 -17.56,60.65 -17.83,60.17 -17.93,59.63 -18.02,59.09 -17.95,58.55 -17.87,58.01 -17.62,57.52 -17.37,57.03 -16.98,56.65 -16.59,56.26 -16.10,56.02 -15.61,55.78 -15.06,55.71 -14.52,55.64 -13.98,55.75 -13.44,55.86 -12.97,56.13 -12.49,56.40 -12.13,56.81 -11.77,57.22 -11.55,57.73 -11.34,58.23 -11.30,58.78 -11.26,59.33 -11.40,59.86 -11.53,60.39 -11.83,60.85 -12.13,61.31 -12.56,61.65 -12.99,61.99 -13.51,62.18 -14.02,62.36 -14.57,62.37 -15.12,62.38 -15.64,62.22 -16.16,62.05 -16.61,61.73 -17.05,61.41 -17.37,60.96 -17.68,60.51 -17.84,59.99 -18.00,59.46 -17.98,58.91 -17.96,58.36 -17.96,58.36 -17.96,58.37 -16.95,54.29 -15.94,50.22 -14.66,44.02 -13.38,37.83 -11.98,31.09 -10.59,24.35 -8.91,17.62 -7.24,10.88 -5.49,4.84 -3.74,-1.19 -3.54,-1.62 -3.34,-2.06 -3.05,-2.43 -2.75,-2.80 -2.38,-3.09 -2.00,-3.38 -1.57,-3.57 -1.14,-3.76 -0.67,-3.84 -0.20,-3.92 0.26,-3.89 0.73,-3.86 1.19,-3.71 1.64,-3.57 2.04,-3.32 2.44,-3.07 2.78,-2.73 3.11,-2.40 3.35,-1.99 3.59,-1.58 3.73,-1.13 3.87,-0.67 3.89,-0.20 3.92,0.26 3.83,0.73 3.74,1.19 3.74,1.19 L 3.74,1.19 Z"/></g><g transform="translate(215.8333740234375 133.3333282470703) rotate(0 20 4.5833282470703125)" stroke="none"><path fill="#1e1e1e" d="M -0.26,-4.19 Q -0.26,-4.19 3.58,-4.32 7.42,-4.46 11.32,-4.05 15.21,-3.64 19.12,-2.12 23.03,-0.60 27.32,1.32 31.60,3.26 35.57,4.49 39.54,5.71 40.09,6.02 40.64,6.32 41.06,6.78 41.48,7.25 41.74,7.82 41.99,8.39 42.05,9.02 42.11,9.64 41.96,10.25 41.82,10.87 41.49,11.40 41.15,11.93 40.67,12.33 40.18,12.73 39.60,12.95 39.01,13.17 38.38,13.20 37.75,13.22 37.15,13.04 36.55,12.87 36.04,12.51 35.52,12.14 35.15,11.64 34.78,11.13 34.59,10.53 34.40,9.94 34.41,9.31 34.42,8.68 34.63,8.09 34.84,7.50 35.23,7.00 35.61,6.51 36.14,6.17 36.67,5.82 37.27,5.66 37.88,5.51 38.51,5.55 39.13,5.59 39.71,5.84 40.29,6.08 40.76,6.49 41.24,6.91 41.55,7.45 41.87,7.99 41.99,8.61 42.12,9.22 42.04,9.85 41.96,10.47 41.69,11.04 41.41,11.60 40.97,12.05 40.53,12.50 39.97,12.78 39.41,13.07 38.79,13.16 38.17,13.25 37.55,13.14 36.94,13.03 36.94,13.03 36.94,13.03 32.93,11.42 28.92,9.81 24.55,8.20 20.17,6.59 17.23,5.39 14.30,4.19 11.10,3.85 7.90,3.50 4.08,3.84 0.26,4.19 -0.24,4.16 -0.74,4.13 -1.23,3.98 -1.71,3.83 -2.15,3.57 -2.58,3.31 -2.94,2.95 -3.30,2.59 -3.56,2.16 -3.82,1.73 -3.97,1.24 -4.13,0.76 -4.16,0.25 -4.19,-0.24 -4.10,-0.74 -4.01,-1.24 -3.80,-1.70 -3.59,-2.16 -3.28,-2.56 -2.97,-2.96 -2.57,-3.27 -2.18,-3.59 -1.71,-3.79 -1.25,-4.00 -0.75,-4.10 -0.26,-4.19 -0.26,-4.19 L -0.26,-4.19 Z"/></g><g transform="translate(291.66668701171875 95.83332824707031) rotate(0 -18.33331298828125 33.75)" stroke="none"><path fill="#1e1e1e" d="M 2.80,2.33 Q 2.80,2.33 0.39,5.20 -2.00,8.06 -5.17,12.64 -8.34,17.22 -11.89,22.99 -15.44,28.75 -18.86,35.21 -22.29,41.67 -24.97,46.82 -27.66,51.98 -29.48,56.66 -31.29,61.35 -31.85,63.49 -32.41,65.63 -32.68,66.10 -32.95,66.56 -33.35,66.91 -33.75,67.27 -34.25,67.47 -34.74,67.68 -35.28,67.72 -35.81,67.75 -36.33,67.62 -36.85,67.48 -37.30,67.19 -37.75,66.89 -38.08,66.47 -38.41,66.05 -38.59,65.55 -38.77,65.04 -38.77,64.50 -38.78,63.97 -38.62,63.46 -38.45,62.95 -38.14,62.51 -37.82,62.08 -37.38,61.78 -36.94,61.47 -36.43,61.32 -35.91,61.17 -35.38,61.19 -34.84,61.21 -34.34,61.40 -33.84,61.59 -33.42,61.93 -33.01,62.27 -32.73,62.73 -32.44,63.18 -32.32,63.70 -32.20,64.22 -32.25,64.76 -32.30,65.29 -32.52,65.78 -32.73,66.27 -33.10,66.67 -33.46,67.06 -33.93,67.32 -34.40,67.58 -34.93,67.67 -35.45,67.77 -35.98,67.69 -36.51,67.61 -36.99,67.37 -37.47,67.12 -37.84,66.74 -38.22,66.35 -38.45,65.87 -38.68,65.39 -38.75,64.86 -38.82,64.32 -38.71,63.80 -38.60,63.27 -38.60,63.27 -38.60,63.27 -37.59,61.30 -36.58,59.33 -34.71,54.34 -32.84,49.34 -30.24,44.12 -27.63,38.89 -24.25,32.21 -20.86,25.52 -17.40,19.53 -13.93,13.53 -10.75,8.48 -7.57,3.43 -5.19,0.54 -2.80,-2.33 -2.48,-2.64 -2.16,-2.94 -1.78,-3.15 -1.39,-3.37 -0.97,-3.49 -0.54,-3.61 -0.10,-3.62 0.33,-3.63 0.76,-3.54 1.19,-3.45 1.58,-3.26 1.98,-3.06 2.32,-2.78 2.66,-2.50 2.92,-2.14 3.18,-1.79 3.35,-1.38 3.51,-0.98 3.58,-0.54 3.65,-0.11 3.61,0.32 3.57,0.76 3.42,1.18 3.28,1.59 3.04,1.96 2.80,2.33 2.80,2.33 L 2.80,2.33 Z"/></g><g transform="translate(321.66668701171875 114.16667175292969) rotate(0 -6.666656494140625 21.25)" stroke="none"><path fill="#1e1e1e" d="M 3.83,1.41 Q 3.83,1.41 1.97,5.89 0.11,10.38 -1.44,14.39 -2.99,18.41 -4.39,22.90 -5.79,27.39 -6.77,30.84 -7.75,34.29 -8.54,38.02 -9.33,41.76 -9.57,42.31 -9.81,42.85 -10.21,43.29 -10.61,43.73 -11.14,44.02 -11.66,44.31 -12.25,44.42 -12.83,44.53 -13.42,44.44 -14.02,44.35 -14.55,44.08 -15.08,43.81 -15.50,43.39 -15.92,42.96 -16.18,42.42 -16.44,41.89 -16.51,41.29 -16.59,40.70 -16.47,40.12 -16.35,39.53 -16.05,39.01 -15.75,38.50 -15.31,38.10 -14.86,37.71 -14.31,37.48 -13.76,37.24 -13.16,37.20 -12.57,37.16 -11.99,37.31 -11.41,37.46 -10.91,37.78 -10.41,38.11 -10.04,38.58 -9.67,39.05 -9.47,39.61 -9.27,40.17 -9.26,40.77 -9.25,41.37 -9.43,41.94 -9.61,42.51 -9.96,42.99 -10.31,43.47 -10.80,43.81 -11.29,44.16 -11.86,44.33 -12.44,44.50 -13.03,44.48 -13.63,44.45 -14.19,44.24 -14.75,44.03 -15.21,43.65 -15.67,43.27 -15.99,42.77 -16.30,42.26 -16.44,41.68 -16.58,41.10 -16.53,40.50 -16.47,39.91 -16.47,39.91 -16.47,39.91 -15.31,36.12 -14.15,32.32 -13.04,28.97 -11.94,25.62 -10.68,20.89 -9.43,16.16 -8.12,11.99 -6.82,7.82 -5.32,3.20 -3.83,-1.41 -3.60,-1.85 -3.38,-2.28 -3.06,-2.66 -2.73,-3.03 -2.33,-3.31 -1.93,-3.60 -1.47,-3.77 -1.01,-3.95 -0.52,-4.02 -0.03,-4.08 0.45,-4.03 0.94,-3.97 1.40,-3.80 1.86,-3.63 2.27,-3.36 2.68,-3.08 3.01,-2.71 3.34,-2.35 3.57,-1.91 3.80,-1.48 3.92,-1.00 4.05,-0.53 4.05,-0.03 4.06,0.45 3.94,0.93 3.83,1.41 3.83,1.41 L 3.83,1.41 Z"/></g><g transform="translate(362.50006103515625 117.49998474121094) rotate(0 4.166656494140625 31.25)" stroke="none"><path fill="#1e1e1e" d="M 2.39,2.78 Q 2.39,2.78 -2.61,6.79 -7.62,10.80 -8.48,15.51 -9.34,20.21 -6.43,26.15 -3.51,32.08 1.57,37.47 6.65,42.85 12.78,47.29 18.92,51.74 22.67,53.87 26.42,56.00 27.96,56.72 29.49,57.44 29.81,57.68 30.13,57.91 30.38,58.21 30.63,58.51 30.80,58.86 30.98,59.22 31.06,59.60 31.14,59.98 31.13,60.38 31.12,60.77 31.02,61.15 30.91,61.53 30.72,61.87 30.53,62.21 30.26,62.50 29.99,62.78 29.66,63.00 29.33,63.21 28.96,63.34 28.59,63.47 28.20,63.51 27.81,63.54 27.42,63.48 27.03,63.43 26.66,63.28 26.30,63.13 22.42,64.18 18.54,65.24 11.30,64.32 4.07,63.40 -2.00,62.50 -8.09,61.61 -12.49,60.47 -16.90,59.33 -18.76,59.10 -20.63,58.88 -21.12,58.67 -21.61,58.45 -22.01,58.09 -22.41,57.73 -22.67,57.27 -22.93,56.80 -23.03,56.27 -23.13,55.75 -23.06,55.22 -22.98,54.69 -22.74,54.21 -22.50,53.73 -22.12,53.35 -21.74,52.97 -21.26,52.74 -20.78,52.50 -20.25,52.43 -19.72,52.36 -19.19,52.46 -18.67,52.57 -18.20,52.83 -17.74,53.10 -17.38,53.50 -17.03,53.90 -16.82,54.39 -16.61,54.88 -16.56,55.42 -16.52,55.95 -16.65,56.47 -16.79,56.99 -17.08,57.44 -17.37,57.89 -17.78,58.22 -18.20,58.56 -18.71,58.74 -19.21,58.92 -19.75,58.94 -20.28,58.95 -20.79,58.79 -21.30,58.63 -21.74,58.32 -22.17,58.00 -22.48,57.57 -22.79,57.13 -22.95,56.62 -23.10,56.10 -23.09,55.57 -23.07,55.03 -22.88,54.53 -22.70,54.03 -22.36,53.61 -22.02,53.20 -21.57,52.91 -21.12,52.62 -20.60,52.50 -20.08,52.37 -19.54,52.42 -19.01,52.46 -19.01,52.46 -19.01,52.46 -17.26,53.15 -15.51,53.84 -11.40,54.85 -7.29,55.86 -1.24,56.64 4.80,57.42 11.46,58.19 18.13,58.95 21.36,58.95 24.60,58.94 27.05,58.19 29.49,57.44 29.81,57.68 30.13,57.91 30.38,58.21 30.63,58.51 30.80,58.86 30.98,59.22 31.06,59.60 31.14,59.98 31.13,60.38 31.12,60.77 31.02,61.15 30.91,61.53 30.72,61.87 30.53,62.21 30.26,62.50 29.99,62.78 29.66,63.00 29.33,63.21 28.96,63.34 28.59,63.47 28.20,63.51 27.81,63.54 27.42,63.48 27.03,63.43 26.67,63.28 26.30,63.13 25.00,61.99 23.70,60.85 19.65,58.60 15.60,56.34 9.00,51.60 2.41,46.86 -3.27,40.78 -8.96,34.70 -12.22,27.20 -15.49,19.69 -13.99,13.06 -12.50,6.44 -7.44,1.82 -2.39,-2.78 -2.02,-3.03 -1.65,-3.27 -1.23,-3.43 -0.82,-3.58 -0.38,-3.62 0.06,-3.67 0.49,-3.61 0.93,-3.55 1.34,-3.38 1.76,-3.22 2.12,-2.96 2.48,-2.70 2.76,-2.37 3.05,-2.03 3.25,-1.64 3.45,-1.24 3.55,-0.81 3.65,-0.38 3.64,0.05 3.63,0.50 3.52,0.93 3.41,1.35 3.20,1.74 2.98,2.13 2.68,2.46 2.39,2.78 2.39,2.78 L 2.39,2.78 Z"/></g><g transform="translate(542.5000610351562 98.33332824707031) rotate(0 -1.66668701171875 34.16667175292969)" stroke="none"><path fill="#1e1e1e" d="M 3.72,0.38 Q 3.72,0.38 2.85,7.31 1.98,14.25 1.33,21.45 0.68,28.66 0.37,35.75 0.06,42.84 0.15,48.43 0.23,54.03 0.52,58.05 0.81,62.07 1.16,63.79 1.52,65.51 1.47,66.06 1.42,66.60 1.20,67.11 0.98,67.61 0.61,68.01 0.24,68.42 -0.23,68.68 -0.71,68.95 -1.25,69.05 -1.79,69.15 -2.33,69.07 -2.87,68.99 -3.36,68.74 -3.85,68.50 -4.23,68.10 -4.62,67.71 -4.86,67.22 -5.10,66.73 -5.17,66.18 -5.24,65.64 -5.13,65.10 -5.02,64.56 -4.75,64.09 -4.47,63.61 -4.06,63.25 -3.65,62.89 -3.15,62.67 -2.64,62.46 -2.09,62.42 -1.55,62.38 -1.02,62.52 -0.48,62.66 -0.02,62.95 0.42,63.25 0.76,63.68 1.10,64.11 1.29,64.63 1.47,65.15 1.48,65.70 1.49,66.24 1.33,66.77 1.16,67.29 0.84,67.73 0.52,68.18 0.07,68.49 -0.37,68.81 -0.89,68.96 -1.42,69.12 -1.97,69.10 -2.52,69.08 -3.03,68.89 -3.54,68.70 -3.97,68.35 -4.39,68.00 -4.68,67.54 -4.98,67.07 -5.10,66.54 -5.23,66.00 -5.23,66.01 -5.23,66.01 -5.13,64.25 -5.03,62.50 -5.34,58.33 -5.64,54.17 -5.84,48.41 -6.04,42.64 -5.89,35.41 -5.74,28.18 -5.30,20.86 -4.86,13.54 -4.29,6.57 -3.72,-0.38 -3.62,-0.82 -3.52,-1.26 -3.32,-1.66 -3.11,-2.07 -2.82,-2.41 -2.53,-2.75 -2.16,-3.02 -1.79,-3.28 -1.37,-3.45 -0.96,-3.62 -0.51,-3.68 -0.06,-3.74 0.38,-3.69 0.83,-3.65 1.25,-3.49 1.68,-3.34 2.05,-3.09 2.43,-2.84 2.73,-2.51 3.04,-2.18 3.26,-1.78 3.47,-1.38 3.59,-0.95 3.70,-0.51 3.71,-0.06 3.72,0.38 3.72,0.38 L 3.72,0.38 Z"/></g><g transform="translate(585.8333129882812 109.99998474121094) rotate(0 2.0833740234375 19.583343505859375)" stroke="none"><path fill="#1e1e1e" d="M 1.65,4.14 Q 1.65,4.14 -0.53,5.03 -2.71,5.92 -2.89,8.62 -3.07,11.33 -2.10,14.18 -1.12,17.04 1.53,20.57 4.19,24.10 6.71,26.30 9.23,28.49 11.36,30.33 13.49,32.17 13.82,33.14 14.16,34.10 14.50,34.51 14.85,34.91 15.09,35.38 15.33,35.86 15.44,36.38 15.56,36.90 15.55,37.43 15.55,37.96 15.41,38.48 15.27,38.99 15.02,39.46 14.76,39.92 14.40,40.32 14.04,40.71 13.60,41.00 13.16,41.30 12.66,41.48 12.16,41.66 11.63,41.71 11.10,41.77 10.57,41.70 10.04,41.62 9.55,41.43 9.05,41.23 8.62,40.92 8.19,40.61 3.77,41.86 -0.64,43.11 -4.07,43.37 -7.49,43.63 -8.22,43.54 -8.95,43.45 -9.61,43.13 -10.27,42.81 -10.79,42.30 -11.32,41.79 -11.65,41.14 -11.98,40.49 -12.09,39.76 -12.20,39.04 -12.07,38.32 -11.94,37.59 -11.59,36.95 -11.24,36.31 -10.70,35.81 -10.16,35.32 -9.49,35.02 -8.82,34.72 -8.09,34.65 -7.36,34.59 -6.65,34.75 -5.94,34.92 -5.31,35.31 -4.69,35.70 -4.23,36.26 -3.76,36.83 -3.50,37.51 -3.24,38.19 -3.21,38.93 -3.18,39.66 -3.39,40.36 -3.59,41.06 -4.01,41.66 -4.43,42.26 -5.02,42.70 -5.61,43.13 -6.31,43.36 -7.01,43.58 -7.74,43.57 -8.47,43.56 -9.16,43.32 -9.85,43.07 -10.43,42.62 -11.01,42.17 -11.41,41.56 -11.81,40.94 -12.00,40.23 -12.18,39.53 -12.13,38.79 -12.08,38.06 -11.80,37.39 -11.52,36.71 -11.04,36.16 -10.55,35.61 -9.92,35.24 -9.29,34.87 -8.57,34.73 -7.85,34.58 -7.85,34.58 -7.85,34.58 -4.53,34.57 -1.21,34.56 1.84,34.36 4.90,34.16 9.53,34.13 14.16,34.10 14.50,34.50 14.85,34.91 15.09,35.38 15.33,35.86 15.44,36.38 15.56,36.90 15.55,37.43 15.55,37.96 15.41,38.48 15.27,38.99 15.02,39.46 14.76,39.92 14.40,40.32 14.04,40.71 13.60,41.00 13.16,41.30 12.66,41.48 12.16,41.66 11.63,41.71 11.10,41.77 10.57,41.70 10.04,41.62 9.55,41.43 9.05,41.23 8.62,40.92 8.19,40.61 7.86,39.13 7.53,37.65 5.85,36.00 4.16,34.34 1.09,31.70 -1.96,29.05 -5.69,24.57 -9.41,20.10 -11.06,15.39 -12.72,10.68 -12.04,6.91 -11.37,3.15 -9.12,0.53 -6.86,-2.08 -4.26,-3.11 -1.65,-4.14 -1.13,-4.28 -0.61,-4.42 -0.07,-4.43 0.45,-4.43 0.98,-4.32 1.50,-4.20 1.98,-3.95 2.46,-3.71 2.87,-3.36 3.28,-3.01 3.60,-2.58 3.91,-2.14 4.11,-1.64 4.31,-1.14 4.38,-0.61 4.46,-0.08 4.40,0.45 4.35,0.99 4.17,1.49 3.98,2.00 3.69,2.45 3.39,2.89 2.99,3.26 2.60,3.62 2.12,3.88 1.65,4.14 1.65,4.14 L 1.65,4.14 Z"/></g><g transform="translate(665.0000610351562 159.1666717529297) rotate(0 30.83331298828125 -29.583343505859375)" stroke="none"><path fill="#1e1e1e" d="M -2.69,-2.33 Q -2.69,-2.33 1.95,-7.51 6.59,-12.70 11.47,-18.23 16.35,-23.76 21.82,-29.72 27.30,-35.67 33.96,-42.75 40.61,-49.82 44.24,-53.12 47.87,-56.42 49.45,-57.99 51.02,-59.55 51.34,-59.78 51.66,-60.01 52.03,-60.16 52.40,-60.31 52.80,-60.37 53.19,-60.42 53.59,-60.38 53.98,-60.34 54.36,-60.21 54.73,-60.07 55.07,-59.85 55.40,-59.63 55.67,-59.34 55.94,-59.05 56.13,-58.70 56.32,-58.35 56.43,-57.97 56.53,-57.58 56.54,-57.18 56.55,-56.79 56.46,-56.40 56.37,-56.01 56.19,-55.65 56.01,-55.30 55.76,-54.99 55.50,-54.69 57.23,-46.15 58.96,-37.61 60.07,-30.34 61.18,-23.07 62.11,-18.05 63.04,-13.03 63.85,-8.90 64.65,-4.77 64.64,-4.24 64.63,-3.71 64.46,-3.21 64.28,-2.71 63.95,-2.29 63.62,-1.87 63.17,-1.58 62.73,-1.29 62.21,-1.15 61.70,-1.02 61.17,-1.06 60.64,-1.10 60.14,-1.30 59.65,-1.51 59.25,-1.86 58.85,-2.21 58.59,-2.67 58.32,-3.13 58.22,-3.66 58.11,-4.18 58.18,-4.71 58.24,-5.23 58.48,-5.71 58.71,-6.19 59.08,-6.57 59.45,-6.95 59.93,-7.19 60.40,-7.43 60.93,-7.51 61.46,-7.59 61.98,-7.49 62.50,-7.40 62.97,-7.14 63.43,-6.88 63.79,-6.49 64.15,-6.10 64.37,-5.61 64.58,-5.12 64.63,-4.59 64.68,-4.06 64.56,-3.54 64.43,-3.03 64.15,-2.58 63.87,-2.12 63.46,-1.79 63.04,-1.45 62.55,-1.26 62.05,-1.07 61.52,-1.05 60.98,-1.03 60.47,-1.19 59.96,-1.34 59.53,-1.64 59.09,-1.95 58.78,-2.38 58.47,-2.81 58.30,-3.32 58.14,-3.82 58.14,-3.82 58.14,-3.82 57.76,-7.87 57.37,-11.92 56.33,-17.02 55.28,-22.12 54.01,-29.64 52.73,-37.16 52.18,-44.55 51.62,-51.93 51.32,-55.74 51.02,-59.55 51.34,-59.78 51.66,-60.01 52.03,-60.16 52.40,-60.31 52.80,-60.37 53.19,-60.42 53.59,-60.38 53.98,-60.34 54.36,-60.21 54.73,-60.07 55.07,-59.85 55.40,-59.63 55.67,-59.34 55.94,-59.05 56.13,-58.70 56.32,-58.35 56.43,-57.97 56.53,-57.58 56.54,-57.18 56.55,-56.79 56.46,-56.40 56.37,-56.01 56.19,-55.65 56.01,-55.30 55.76,-54.99 55.50,-54.69 53.60,-53.49 51.69,-52.28 48.27,-49.08 44.84,-45.88 38.29,-38.77 31.73,-31.66 26.41,-25.68 21.09,-19.69 16.35,-14.03 11.61,-8.37 7.15,-3.02 2.69,2.33 2.37,2.61 2.06,2.90 1.68,3.11 1.30,3.31 0.89,3.42 0.47,3.53 0.04,3.53 -0.38,3.54 -0.80,3.44 -1.22,3.34 -1.60,3.15 -1.98,2.95 -2.31,2.67 -2.63,2.39 -2.88,2.04 -3.13,1.69 -3.29,1.29 -3.45,0.89 -3.50,0.47 -3.56,0.04 -3.51,-0.38 -3.47,-0.80 -3.32,-1.21 -3.17,-1.61 -2.93,-1.97 -2.69,-2.33 -2.69,-2.33 L -2.69,-2.33 Z"/></g><g transform="translate(695.0000610351562 146.6666717529297) rotate(0 23.75 -2.083343505859375)" stroke="none"><path fill="#1e1e1e" d="M -0.68,-3.79 Q -0.68,-3.79 4.61,-4.58 9.91,-5.38 15.87,-5.92 21.84,-6.47 27.30,-6.66 32.75,-6.85 36.98,-6.92 41.21,-6.99 42.99,-7.27 44.76,-7.54 45.32,-7.47 45.87,-7.39 46.37,-7.14 46.87,-6.90 47.27,-6.50 47.67,-6.11 47.91,-5.61 48.16,-5.10 48.24,-4.55 48.32,-4.00 48.21,-3.45 48.11,-2.90 47.83,-2.41 47.56,-1.93 47.14,-1.55 46.72,-1.18 46.21,-0.96 45.70,-0.74 45.14,-0.69 44.58,-0.64 44.04,-0.78 43.50,-0.91 43.03,-1.21 42.56,-1.51 42.20,-1.95 41.85,-2.39 41.66,-2.91 41.47,-3.43 41.45,-3.99 41.44,-4.55 41.60,-5.09 41.76,-5.62 42.09,-6.08 42.42,-6.53 42.87,-6.86 43.32,-7.18 43.86,-7.35 44.39,-7.51 44.95,-7.50 45.51,-7.48 46.04,-7.29 46.56,-7.10 47.00,-6.75 47.43,-6.40 47.73,-5.93 48.03,-5.46 48.17,-4.91 48.31,-4.37 48.26,-3.81 48.21,-3.26 47.99,-2.74 47.77,-2.23 47.40,-1.81 47.03,-1.40 46.54,-1.12 46.05,-0.85 45.51,-0.74 44.96,-0.63 44.96,-0.63 44.96,-0.63 43.17,-0.81 41.38,-0.99 37.23,-0.82 33.07,-0.66 27.82,-0.30 22.57,0.05 16.87,0.80 11.17,1.55 5.93,2.67 0.68,3.79 0.22,3.81 -0.23,3.84 -0.69,3.76 -1.15,3.67 -1.57,3.48 -1.99,3.29 -2.36,3.00 -2.72,2.72 -3.01,2.35 -3.30,1.98 -3.49,1.56 -3.68,1.14 -3.76,0.68 -3.84,0.22 -3.81,-0.23 -3.78,-0.69 -3.64,-1.14 -3.51,-1.58 -3.27,-1.98 -3.02,-2.38 -2.70,-2.70 -2.37,-3.03 -1.97,-3.27 -1.57,-3.51 -1.13,-3.65 -0.68,-3.79 -0.68,-3.79 L -0.68,-3.79 Z"/></g><g transform="translate(830.0000610351562 114.99998474121094) rotate(0 18.75 -3.3333282470703125)" stroke="none"><path fill="#1e1e1e" d="M -0.54,-3.97 Q -0.54,-3.97 4.75,-4.51 10.04,-5.04 17.72,-6.40 25.40,-7.75 28.67,-8.47 31.95,-9.20 32.52,-9.22 33.10,-9.23 33.65,-9.06 34.20,-8.90 34.66,-8.56 35.13,-8.23 35.46,-7.76 35.80,-7.30 35.97,-6.75 36.14,-6.20 36.12,-5.63 36.11,-5.06 35.91,-4.52 35.72,-3.98 35.36,-3.53 35.00,-3.08 34.52,-2.77 34.03,-2.46 33.48,-2.32 32.92,-2.18 32.35,-2.23 31.78,-2.27 31.25,-2.50 30.72,-2.73 30.29,-3.11 29.87,-3.49 29.58,-3.99 29.30,-4.49 29.19,-5.05 29.08,-5.61 29.16,-6.18 29.23,-6.75 29.49,-7.27 29.74,-7.78 30.15,-8.19 30.55,-8.59 31.06,-8.85 31.58,-9.11 32.15,-9.18 32.72,-9.26 33.28,-9.16 33.84,-9.05 34.34,-8.77 34.84,-8.49 35.23,-8.06 35.61,-7.63 35.84,-7.11 36.07,-6.58 36.11,-6.01 36.16,-5.44 36.02,-4.88 35.89,-4.32 35.58,-3.84 35.27,-3.35 34.82,-2.99 34.38,-2.63 33.84,-2.43 33.30,-2.24 33.30,-2.24 33.30,-2.24 29.99,-1.68 26.68,-1.13 18.85,0.51 11.03,2.17 5.78,3.07 0.54,3.97 0.05,3.98 -0.42,3.99 -0.89,3.88 -1.36,3.77 -1.80,3.55 -2.23,3.33 -2.59,3.02 -2.96,2.70 -3.24,2.31 -3.52,1.91 -3.70,1.46 -3.88,1.01 -3.94,0.53 -4.01,0.05 -3.96,-0.42 -3.91,-0.90 -3.74,-1.35 -3.58,-1.81 -3.31,-2.21 -3.04,-2.61 -2.68,-2.94 -2.32,-3.27 -1.90,-3.50 -1.47,-3.73 -1.01,-3.85 -0.54,-3.97 -0.54,-3.97 L -0.54,-3.97 Z"/></g><g transform="translate(845.8333129882812 114.99998474121094) rotate(0 -0.83331298828125 17.5)" stroke="none"><path fill="#1e1e1e" d="M 4.42,0.49 Q 4.42,0.49 3.70,4.77 2.98,9.06 2.78,12.46 2.58,15.87 2.46,19.45 2.35,23.03 2.66,25.58 2.97,28.13 3.20,30.87 3.44,33.61 3.36,34.31 3.28,35.01 2.98,35.64 2.68,36.27 2.19,36.78 1.70,37.28 1.08,37.61 0.46,37.93 -0.23,38.04 -0.92,38.15 -1.61,38.03 -2.30,37.91 -2.92,37.57 -3.54,37.24 -4.01,36.73 -4.49,36.21 -4.78,35.57 -5.07,34.93 -5.14,34.24 -5.21,33.54 -5.05,32.85 -4.90,32.17 -4.53,31.57 -4.16,30.97 -3.62,30.52 -3.09,30.07 -2.43,29.82 -1.78,29.57 -1.08,29.53 -0.38,29.50 0.29,29.70 0.96,29.89 1.54,30.29 2.12,30.69 2.54,31.25 2.96,31.81 3.18,32.48 3.39,33.15 3.39,33.85 3.38,34.55 3.15,35.21 2.92,35.87 2.49,36.43 2.06,36.98 1.48,37.37 0.89,37.76 0.22,37.94 -0.45,38.13 -1.15,38.08 -1.85,38.04 -2.50,37.77 -3.15,37.51 -3.68,37.05 -4.21,36.59 -4.57,35.98 -4.93,35.38 -5.07,34.69 -5.21,34.01 -5.21,34.01 -5.21,34.01 -5.22,31.37 -5.23,28.74 -5.33,25.79 -5.42,22.85 -5.37,19.13 -5.31,15.41 -5.10,11.80 -4.90,8.18 -4.66,3.84 -4.42,-0.49 -4.30,-1.01 -4.17,-1.53 -3.93,-2.01 -3.68,-2.49 -3.33,-2.89 -2.98,-3.30 -2.54,-3.61 -2.10,-3.92 -1.60,-4.11 -1.10,-4.31 -0.57,-4.38 -0.04,-4.45 0.48,-4.39 1.02,-4.33 1.52,-4.14 2.02,-3.96 2.47,-3.66 2.91,-3.36 3.27,-2.96 3.63,-2.56 3.89,-2.09 4.14,-1.62 4.27,-1.10 4.41,-0.58 4.41,-0.04 4.42,0.49 4.42,0.49 L 4.42,0.49 Z"/></g><g transform="translate(895.0000610351562 120.83332824707031) rotate(0 2.9166259765625 11.666671752929688)" stroke="none"><path fill="#1e1e1e" d="M 2.95,3.19 Q 2.95,3.19 -0.31,5.90 -3.58,8.61 -6.07,11.01 -8.56,13.40 -9.80,15.24 -11.04,17.07 -7.84,17.74 -4.63,18.41 1.26,17.35 7.15,16.29 11.28,15.44 15.41,14.59 17.14,13.97 18.86,13.35 19.53,13.29 20.19,13.23 20.83,13.39 21.48,13.54 22.04,13.90 22.61,14.25 23.03,14.77 23.45,15.28 23.68,15.91 23.91,16.53 23.94,17.19 23.96,17.86 23.77,18.49 23.58,19.13 23.19,19.67 22.81,20.22 22.27,20.61 21.73,21.00 21.10,21.20 20.46,21.40 19.80,21.39 19.14,21.37 18.51,21.15 17.88,20.92 17.36,20.51 16.84,20.10 16.48,19.54 16.12,18.98 15.95,18.34 15.79,17.69 15.84,17.03 15.89,16.37 16.15,15.75 16.40,15.14 16.85,14.64 17.29,14.15 17.86,13.81 18.44,13.48 19.09,13.35 19.74,13.22 20.40,13.31 21.06,13.39 21.66,13.69 22.26,13.98 22.73,14.44 23.20,14.91 23.50,15.50 23.80,16.10 23.90,16.76 23.99,17.41 23.87,18.07 23.75,18.72 23.43,19.30 23.10,19.88 22.61,20.33 22.12,20.78 21.51,21.05 20.90,21.31 20.90,21.31 20.90,21.31 19.09,21.59 17.28,21.88 13.09,23.16 8.91,24.44 2.00,26.14 -4.90,27.83 -9.13,27.84 -13.36,27.85 -15.97,26.61 -18.58,25.37 -19.23,21.00 -19.88,16.63 -18.79,14.34 -17.69,12.04 -15.84,9.90 -13.98,7.77 -11.43,5.32 -8.87,2.88 -5.91,-0.15 -2.95,-3.19 -2.52,-3.50 -2.10,-3.81 -1.61,-4.00 -1.12,-4.20 -0.60,-4.27 -0.08,-4.35 0.43,-4.30 0.95,-4.24 1.45,-4.07 1.94,-3.89 2.38,-3.60 2.82,-3.31 3.17,-2.93 3.53,-2.54 3.78,-2.08 4.03,-1.62 4.17,-1.11 4.31,-0.61 4.32,-0.08 4.33,0.43 4.21,0.94 4.10,1.46 3.86,1.93 3.63,2.40 3.29,2.80 2.95,3.19 2.95,3.19 L 2.95,3.19 Z"/></g><g transform="translate(882.5000610351562 121.66667175292969) rotate(0 5.83331298828125 -4.583343505859375)" stroke="none"><path fill="#1e1e1e" d="M -2.72,-3.75 Q -2.72,-3.75 -0.07,-5.64 2.58,-7.53 5.01,-9.70 7.44,-11.88 8.11,-12.27 8.77,-12.66 9.53,-12.82 10.29,-12.98 11.06,-12.89 11.83,-12.80 12.53,-12.47 13.23,-12.14 13.79,-11.60 14.35,-11.06 14.70,-10.37 15.06,-9.69 15.18,-8.92 15.30,-8.15 15.16,-7.39 15.03,-6.63 14.66,-5.95 14.29,-5.26 13.73,-4.74 13.16,-4.21 12.45,-3.89 11.75,-3.57 10.97,-3.49 10.20,-3.42 9.45,-3.59 8.69,-3.77 8.03,-4.17 7.37,-4.58 6.88,-5.17 6.38,-5.77 6.10,-6.49 5.82,-7.21 5.78,-7.99 5.75,-8.76 5.96,-9.51 6.18,-10.25 6.62,-10.89 7.06,-11.52 7.68,-11.99 8.30,-12.45 9.04,-12.69 9.78,-12.93 10.55,-12.93 11.33,-12.92 12.06,-12.66 12.79,-12.41 13.40,-11.93 14.01,-11.46 14.44,-10.81 14.87,-10.17 15.07,-9.42 15.27,-8.67 15.22,-7.90 15.17,-7.12 14.88,-6.41 14.59,-5.69 14.08,-5.10 13.57,-4.52 13.57,-4.52 13.57,-4.52 10.77,-2.32 7.96,-0.13 5.34,1.80 2.72,3.75 2.24,4.02 1.75,4.29 1.21,4.44 0.67,4.59 0.11,4.60 -0.44,4.61 -0.99,4.49 -1.53,4.37 -2.03,4.12 -2.54,3.88 -2.96,3.52 -3.39,3.16 -3.72,2.70 -4.05,2.25 -4.26,1.73 -4.47,1.22 -4.55,0.66 -4.63,0.11 -4.58,-0.44 -4.53,-0.99 -4.34,-1.52 -4.15,-2.05 -3.85,-2.52 -3.54,-2.99 -3.13,-3.37 -2.72,-3.75 -2.72,-3.75 L -2.72,-3.75 Z"/></g><g transform="translate(896.6666870117188 104.16667175292969) rotate(0 6.66668701171875 -2.083343505859375)" stroke="none"><path fill="#1e1e1e" d="M -1.36,-4.44 Q -1.36,-4.44 1.75,-5.36 4.88,-6.29 7.74,-7.30 10.60,-8.32 11.37,-8.43 12.13,-8.54 12.89,-8.40 13.66,-8.26 14.33,-7.89 15.01,-7.51 15.53,-6.94 16.05,-6.37 16.37,-5.66 16.68,-4.95 16.75,-4.18 16.82,-3.41 16.64,-2.66 16.46,-1.90 16.05,-1.25 15.63,-0.59 15.04,-0.10 14.44,0.38 13.71,0.65 12.99,0.93 12.21,0.95 11.44,0.98 10.70,0.76 9.96,0.54 9.32,0.09 8.69,-0.34 8.23,-0.97 7.78,-1.59 7.54,-2.33 7.31,-3.07 7.32,-3.84 7.34,-4.62 7.60,-5.35 7.86,-6.07 8.34,-6.68 8.82,-7.29 9.47,-7.71 10.12,-8.13 10.87,-8.33 11.62,-8.52 12.39,-8.46 13.16,-8.41 13.87,-8.11 14.59,-7.81 15.17,-7.30 15.75,-6.78 16.14,-6.11 16.52,-5.44 16.67,-4.68 16.83,-3.93 16.73,-3.16 16.63,-2.39 16.29,-1.69 15.95,-1.00 15.41,-0.45 14.87,0.10 14.18,0.45 13.49,0.80 13.49,0.80 13.49,0.80 10.53,1.63 7.57,2.46 4.47,3.45 1.36,4.44 0.81,4.54 0.26,4.64 -0.29,4.60 -0.85,4.57 -1.38,4.40 -1.92,4.23 -2.40,3.94 -2.88,3.64 -3.27,3.25 -3.67,2.85 -3.95,2.37 -4.24,1.89 -4.41,1.35 -4.57,0.82 -4.60,0.26 -4.63,-0.29 -4.53,-0.84 -4.43,-1.39 -4.20,-1.90 -3.96,-2.41 -3.62,-2.85 -3.27,-3.29 -2.83,-3.64 -2.39,-3.98 -1.87,-4.21 -1.36,-4.44 -1.36,-4.44 L -1.36,-4.44 Z"/></g><g transform="translate(899.1666870117188 120.83332824707031) rotate(0 10.83331298828125 -1.25)" stroke="none"><path fill="#1e1e1e" d="M -0.42,-4.29 Q -0.42,-4.29 4.38,-4.55 9.19,-4.81 14.07,-5.59 18.95,-6.38 19.63,-6.36 20.31,-6.33 20.94,-6.09 21.58,-5.85 22.10,-5.42 22.63,-4.99 22.99,-4.42 23.35,-3.84 23.51,-3.18 23.67,-2.52 23.61,-1.84 23.54,-1.17 23.27,-0.55 23.00,0.06 22.54,0.57 22.08,1.07 21.49,1.40 20.89,1.73 20.22,1.85 19.56,1.97 18.88,1.87 18.21,1.78 17.61,1.47 17.00,1.16 16.52,0.68 16.05,0.19 15.75,-0.41 15.46,-1.02 15.37,-1.69 15.28,-2.37 15.42,-3.03 15.55,-3.70 15.89,-4.29 16.23,-4.87 16.74,-5.32 17.25,-5.77 17.88,-6.04 18.50,-6.30 19.18,-6.35 19.86,-6.40 20.51,-6.23 21.17,-6.06 21.74,-5.69 22.31,-5.32 22.73,-4.78 23.15,-4.25 23.38,-3.61 23.61,-2.97 23.62,-2.29 23.63,-1.61 23.43,-0.97 23.22,-0.32 22.82,0.22 22.42,0.77 21.87,1.16 21.31,1.55 20.66,1.74 20.01,1.94 20.01,1.94 20.01,1.94 14.99,2.41 9.96,2.89 5.19,3.59 0.42,4.29 -0.09,4.28 -0.61,4.27 -1.11,4.14 -1.61,4.00 -2.07,3.75 -2.52,3.50 -2.91,3.14 -3.29,2.79 -3.57,2.36 -3.86,1.92 -4.04,1.43 -4.21,0.94 -4.26,0.42 -4.31,-0.09 -4.24,-0.60 -4.17,-1.12 -3.97,-1.60 -3.78,-2.08 -3.47,-2.51 -3.17,-2.93 -2.77,-3.26 -2.37,-3.60 -1.91,-3.83 -1.44,-4.07 -0.93,-4.18 -0.42,-4.29 -0.42,-4.29 L -0.42,-4.29 Z"/></g><g transform="translate(999.1666870117188 89.16667175292969) rotate(0 -18.3333740234375 27.083328247070312)" stroke="none"><path fill="#1e1e1e" d="M 0.21,3.86 Q 0.21,3.86 -4.10,3.93 -8.41,4.00 -13.01,5.11 -17.61,6.22 -18.97,8.09 -20.34,9.97 -14.65,15.04 -8.97,20.12 -4.29,23.31 0.38,26.50 4.28,28.88 8.17,31.25 10.73,33.04 13.28,34.83 14.47,38.15 15.65,41.47 14.18,44.24 12.70,47.01 8.53,49.09 4.36,51.17 -0.81,52.54 -5.99,53.90 -12.34,54.89 -18.69,55.89 -27.25,56.27 -35.81,56.65 -40.09,56.78 -44.38,56.90 -47.18,56.81 -49.97,56.73 -50.49,56.60 -51.01,56.46 -51.46,56.17 -51.91,55.88 -52.25,55.46 -52.58,55.04 -52.76,54.54 -52.95,54.04 -52.96,53.50 -52.97,52.96 -52.81,52.45 -52.65,51.94 -52.34,51.51 -52.02,51.07 -51.58,50.76 -51.15,50.45 -50.63,50.30 -50.12,50.14 -49.58,50.16 -49.05,50.18 -48.55,50.36 -48.04,50.55 -47.63,50.89 -47.21,51.23 -46.92,51.68 -46.64,52.13 -46.51,52.65 -46.38,53.17 -46.43,53.71 -46.48,54.24 -46.69,54.73 -46.91,55.22 -47.27,55.62 -47.63,56.02 -48.09,56.28 -48.56,56.54 -49.09,56.64 -49.61,56.74 -50.15,56.66 -50.68,56.59 -51.16,56.35 -51.63,56.11 -52.01,55.73 -52.39,55.35 -52.63,54.87 -52.86,54.38 -52.93,53.85 -53.00,53.32 -52.90,52.79 -52.79,52.27 -52.53,51.80 -52.26,51.34 -51.86,50.98 -51.46,50.63 -50.97,50.42 -50.47,50.21 -49.94,50.17 -49.40,50.13 -49.40,50.13 -49.40,50.13 -47.03,50.49 -44.65,50.85 -40.41,50.58 -36.16,50.30 -28.01,49.76 -19.86,49.22 -13.96,48.04 -8.07,46.87 -3.60,45.37 0.87,43.88 4.72,42.00 8.57,40.12 6.74,38.50 4.92,36.87 0.76,34.61 -3.38,32.34 -8.62,29.12 -13.86,25.90 -19.35,21.37 -24.83,16.84 -26.27,13.21 -27.72,9.58 -26.40,6.51 -25.09,3.43 -22.26,1.68 -19.42,-0.06 -14.13,-1.55 -8.83,-3.04 -4.52,-3.45 -0.21,-3.86 0.25,-3.83 0.71,-3.80 1.16,-3.66 1.60,-3.52 2.00,-3.27 2.40,-3.03 2.72,-2.70 3.05,-2.37 3.29,-1.97 3.53,-1.57 3.67,-1.12 3.80,-0.67 3.83,-0.21 3.86,0.25 3.77,0.71 3.68,1.16 3.49,1.59 3.30,2.01 3.01,2.38 2.72,2.74 2.35,3.03 1.98,3.32 1.55,3.51 1.13,3.69 0.67,3.78 0.21,3.86 0.21,3.86 L 0.21,3.86 Z"/></g><g transform="translate(1040.0000610351562 99.16667175292969) rotate(0 33.75 0.8333282470703125)" stroke="none"><path fill="#1e1e1e" d="M 0.31,-3.82 Q 0.31,-3.82 6.05,-3.18 11.79,-2.54 18.92,-2.22 26.06,-1.90 33.66,-1.73 41.26,-1.55 48.03,-1.69 54.80,-1.83 58.43,-2.01 62.06,-2.18 63.60,-2.43 65.13,-2.67 65.70,-2.59 66.28,-2.51 66.79,-2.25 67.31,-2.00 67.71,-1.59 68.12,-1.18 68.38,-0.66 68.63,-0.14 68.71,0.42 68.78,0.99 68.67,1.56 68.56,2.12 68.27,2.62 67.99,3.13 67.56,3.51 67.13,3.89 66.60,4.12 66.07,4.34 65.49,4.39 64.92,4.43 64.36,4.29 63.80,4.15 63.31,3.84 62.83,3.53 62.47,3.08 62.11,2.63 61.91,2.08 61.71,1.54 61.70,0.97 61.69,0.39 61.86,-0.15 62.03,-0.70 62.37,-1.17 62.71,-1.64 63.18,-1.97 63.65,-2.31 64.20,-2.47 64.75,-2.64 65.33,-2.62 65.90,-2.61 66.44,-2.41 66.98,-2.20 67.43,-1.84 67.88,-1.48 68.19,-0.99 68.50,-0.50 68.64,0.05 68.77,0.61 68.72,1.18 68.67,1.76 68.45,2.28 68.22,2.81 67.83,3.24 67.44,3.67 66.94,3.95 66.44,4.23 65.87,4.34 65.30,4.45 65.30,4.45 65.30,4.45 63.76,4.27 62.21,4.10 58.60,4.10 54.98,4.10 48.08,4.36 41.19,4.63 33.53,4.63 25.87,4.63 18.54,4.55 11.20,4.46 5.44,4.14 -0.31,3.82 -0.77,3.73 -1.22,3.64 -1.64,3.44 -2.06,3.24 -2.41,2.94 -2.77,2.65 -3.05,2.28 -3.33,1.91 -3.51,1.48 -3.69,1.05 -3.76,0.60 -3.83,0.14 -3.80,-0.31 -3.76,-0.77 -3.61,-1.21 -3.46,-1.65 -3.21,-2.04 -2.96,-2.43 -2.63,-2.75 -2.29,-3.07 -1.89,-3.30 -1.49,-3.53 -1.05,-3.66 -0.60,-3.79 -0.14,-3.81 0.31,-3.82 0.31,-3.82 L 0.31,-3.82 Z"/></g><g transform="translate(1077.5000610351562 99.16667175292969) rotate(0 1.6666259765625 26.25)" stroke="none"><path fill="#1e1e1e" d="M 4.12,-0.37 Q 4.12,-0.37 4.40,4.91 4.68,10.20 4.74,16.14 4.80,22.08 4.78,27.47 4.75,32.86 4.96,36.98 5.16,41.09 5.70,43.71 6.24,46.33 6.56,49.01 6.88,51.69 6.83,52.27 6.78,52.85 6.55,53.39 6.31,53.92 5.92,54.35 5.53,54.79 5.02,55.07 4.51,55.36 3.94,55.46 3.37,55.57 2.79,55.49 2.22,55.41 1.69,55.15 1.17,54.89 0.76,54.47 0.35,54.06 0.10,53.53 -0.15,53.01 -0.23,52.43 -0.30,51.86 -0.19,51.28 -0.08,50.71 0.20,50.21 0.49,49.70 0.93,49.31 1.36,48.93 1.90,48.70 2.43,48.47 3.02,48.43 3.60,48.38 4.16,48.52 4.73,48.67 5.22,48.98 5.70,49.30 6.07,49.76 6.43,50.21 6.63,50.76 6.83,51.31 6.84,51.89 6.85,52.47 6.68,53.03 6.51,53.58 6.16,54.06 5.82,54.53 5.35,54.87 4.87,55.20 4.32,55.37 3.76,55.54 3.18,55.52 2.59,55.50 2.05,55.30 1.50,55.10 1.05,54.73 0.60,54.36 0.28,53.87 -0.02,53.38 -0.15,52.81 -0.29,52.25 -0.29,52.25 -0.29,52.25 -0.46,49.74 -0.63,47.23 -0.80,44.36 -0.98,41.50 -1.33,37.23 -1.68,32.97 -1.87,27.64 -2.07,22.32 -2.42,16.60 -2.76,10.88 -3.44,5.62 -4.12,0.37 -4.11,-0.12 -4.09,-0.62 -3.96,-1.10 -3.83,-1.58 -3.58,-2.02 -3.33,-2.45 -2.99,-2.82 -2.65,-3.18 -2.23,-3.45 -1.81,-3.72 -1.34,-3.89 -0.87,-4.05 -0.37,-4.09 0.12,-4.14 0.61,-4.06 1.11,-3.99 1.57,-3.80 2.03,-3.61 2.43,-3.31 2.84,-3.01 3.16,-2.63 3.48,-2.25 3.70,-1.80 3.91,-1.35 4.02,-0.86 4.12,-0.37 4.12,-0.37 L 4.12,-0.37 Z"/></g><g transform="translate(1120.8333129882812 41.66667175292969) rotate(0 42.91668701171875 1.666656494140625)" stroke="none"><path fill="#1e1e1e" d="M 0.41,-3.73 Q 0.41,-3.73 4.71,-3.10 9.00,-2.47 17.48,-1.68 25.96,-0.89 33.59,-0.52 41.22,-0.16 49.97,0.02 58.72,0.20 65.75,0.06 72.78,-0.08 76.42,-0.47 80.06,-0.87 81.57,-1.15 83.08,-1.43 83.59,-1.41 84.11,-1.39 84.60,-1.20 85.08,-1.02 85.48,-0.69 85.89,-0.35 86.16,0.08 86.43,0.52 86.55,1.02 86.67,1.53 86.62,2.05 86.57,2.56 86.36,3.04 86.15,3.51 85.80,3.89 85.44,4.28 84.99,4.53 84.53,4.78 84.02,4.87 83.51,4.96 83.00,4.88 82.48,4.80 82.02,4.57 81.56,4.33 81.20,3.96 80.83,3.58 80.61,3.12 80.38,2.65 80.32,2.13 80.26,1.62 80.36,1.11 80.47,0.60 80.73,0.15 80.99,-0.29 81.38,-0.63 81.77,-0.97 82.25,-1.17 82.73,-1.37 83.25,-1.40 83.77,-1.44 84.27,-1.31 84.78,-1.18 85.21,-0.89 85.64,-0.60 85.96,-0.19 86.28,0.20 86.46,0.69 86.63,1.19 86.63,1.70 86.64,2.22 86.48,2.72 86.32,3.21 86.01,3.63 85.71,4.05 85.28,4.35 84.85,4.64 84.35,4.79 83.86,4.93 83.86,4.93 83.86,4.93 82.21,5.04 80.57,5.14 76.75,5.39 72.93,5.63 65.78,5.86 58.64,6.09 49.81,6.03 40.99,5.96 33.22,5.75 25.44,5.54 16.84,4.96 8.24,4.39 3.91,4.06 -0.41,3.73 -0.85,3.63 -1.29,3.53 -1.70,3.32 -2.10,3.11 -2.44,2.81 -2.78,2.52 -3.05,2.15 -3.31,1.78 -3.47,1.35 -3.64,0.93 -3.70,0.48 -3.76,0.03 -3.71,-0.41 -3.66,-0.86 -3.50,-1.28 -3.34,-1.71 -3.09,-2.08 -2.84,-2.46 -2.50,-2.76 -2.16,-3.07 -1.76,-3.28 -1.36,-3.50 -0.93,-3.61 -0.49,-3.72 -0.03,-3.73 0.41,-3.73 0.41,-3.73 L 0.41,-3.73 Z"/></g><g transform="translate(1123.3333129882812 44.99998474121094) rotate(0 35.8333740234375 46.25001525878906)" stroke="none"><path fill="#1e1e1e" d="M 2.49,-2.32 Q 2.49,-2.32 5.77,1.33 9.04,5.00 12.37,9.03 15.71,13.06 19.53,18.18 23.35,23.30 28.86,32.54 34.37,41.77 37.91,48.85 41.45,55.93 45.08,63.22 48.72,70.51 51.45,76.00 54.19,81.50 56.71,85.38 59.23,89.27 60.54,90.36 61.85,91.46 62.02,91.80 62.19,92.14 62.27,92.52 62.35,92.89 62.34,93.27 62.33,93.65 62.23,94.02 62.12,94.39 61.94,94.72 61.75,95.06 61.49,95.34 61.23,95.62 60.91,95.82 60.59,96.03 60.23,96.16 59.86,96.28 59.48,96.32 59.10,96.36 58.72,96.30 58.35,96.24 57.99,96.10 57.64,95.95 57.33,95.73 57.02,95.50 56.78,95.21 56.53,94.91 57.42,91.63 58.32,88.35 58.63,85.89 58.94,83.44 59.79,77.85 60.63,72.26 61.52,66.45 62.41,60.65 63.54,54.55 64.67,48.44 65.64,42.78 66.62,37.11 67.27,29.30 67.92,21.49 68.22,16.25 68.51,11.00 68.62,6.87 68.73,2.74 68.75,-0.14 68.77,-3.04 68.86,-3.50 68.95,-3.95 69.18,-4.36 69.41,-4.76 69.76,-5.07 70.11,-5.38 70.54,-5.56 70.97,-5.74 71.44,-5.78 71.90,-5.81 72.35,-5.70 72.81,-5.58 73.20,-5.33 73.59,-5.07 73.88,-4.71 74.17,-4.34 74.32,-3.91 74.48,-3.47 74.49,-3.00 74.50,-2.53 74.36,-2.09 74.22,-1.64 73.95,-1.27 73.67,-0.89 73.29,-0.62 72.91,-0.35 72.47,-0.22 72.02,-0.08 71.55,-0.10 71.09,-0.12 70.65,-0.28 70.21,-0.44 69.85,-0.74 69.49,-1.03 69.24,-1.43 68.99,-1.82 68.88,-2.27 68.77,-2.73 68.82,-3.19 68.86,-3.66 69.04,-4.08 69.23,-4.51 69.54,-4.86 69.86,-5.20 70.27,-5.43 70.67,-5.65 71.13,-5.74 71.59,-5.82 72.05,-5.76 72.51,-5.69 72.93,-5.48 73.35,-5.27 73.67,-4.94 74.00,-4.61 74.21,-4.19 74.41,-3.77 74.47,-3.31 74.53,-2.84 74.53,-2.84 74.53,-2.85 74.39,0.02 74.26,2.89 74.14,7.09 74.02,11.28 73.77,16.61 73.52,21.94 72.91,29.99 72.30,38.04 71.41,43.75 70.52,49.47 69.54,55.48 68.55,61.50 67.84,67.30 67.13,73.11 66.47,79.05 65.81,84.98 63.83,88.22 61.85,91.46 62.02,91.80 62.19,92.14 62.27,92.52 62.35,92.89 62.34,93.27 62.33,93.65 62.23,94.02 62.13,94.39 61.94,94.72 61.75,95.06 61.49,95.34 61.23,95.62 60.91,95.82 60.59,96.03 60.23,96.16 59.86,96.28 59.48,96.32 59.10,96.36 58.72,96.30 58.35,96.24 57.99,96.10 57.64,95.95 57.33,95.73 57.02,95.50 56.78,95.21 56.53,94.91 55.63,93.56 54.73,92.20 52.03,88.07 49.34,83.93 46.58,78.45 43.81,72.97 40.14,65.70 36.48,58.44 32.98,51.57 29.49,44.70 24.09,35.77 18.69,26.84 14.88,21.92 11.07,17.00 7.72,13.18 4.36,9.37 0.93,5.85 -2.49,2.32 -2.73,1.99 -2.98,1.66 -3.13,1.28 -3.29,0.90 -3.35,0.49 -3.41,0.08 -3.37,-0.32 -3.33,-0.73 -3.19,-1.11 -3.06,-1.50 -2.83,-1.85 -2.61,-2.19 -2.31,-2.47 -2.01,-2.75 -1.65,-2.95 -1.29,-3.15 -0.89,-3.26 -0.49,-3.37 -0.08,-3.38 0.32,-3.39 0.72,-3.31 1.12,-3.22 1.49,-3.04 1.86,-2.85 2.18,-2.59 2.49,-2.32 2.49,-2.32 L 2.49,-2.32 Z"/></g><g transform="translate(1163.3333129882812 136.6666717529297) rotate(0 25.41668701171875 32.08332824707031)" stroke="none"><path fill="#1e1e1e" d="M 2.83,1.33 Q 2.83,1.33 0.85,5.36 -1.11,9.39 -1.86,13.17 -2.60,16.95 -2.72,21.55 -2.84,26.14 -0.88,32.25 1.07,38.35 8.77,44.95 16.47,51.54 23.30,54.10 30.13,56.66 35.45,56.40 40.77,56.13 44.78,52.75 48.79,49.36 50.43,44.96 52.08,40.55 49.12,34.06 46.16,27.57 42.03,23.20 37.89,18.83 33.46,16.33 29.03,13.83 25.96,12.69 22.88,11.55 20.97,13.92 19.06,16.28 18.63,16.55 18.21,16.81 17.72,16.92 17.23,17.04 16.73,16.99 16.24,16.94 15.78,16.74 15.32,16.53 14.96,16.19 14.59,15.85 14.35,15.41 14.11,14.97 14.02,14.48 13.94,13.99 14.01,13.49 14.09,13.00 14.32,12.55 14.54,12.11 14.90,11.76 15.26,11.41 15.71,11.20 16.17,10.98 16.66,10.92 17.16,10.86 17.65,10.96 18.14,11.06 18.57,11.32 19.00,11.57 19.33,11.95 19.66,12.33 19.85,12.79 20.04,13.25 20.07,13.75 20.11,14.25 19.98,14.73 19.85,15.22 19.57,15.63 19.30,16.05 18.90,16.36 18.51,16.67 18.04,16.83 17.56,17.00 17.06,17.00 16.56,17.01 16.09,16.85 15.61,16.70 15.21,16.40 14.81,16.10 14.52,15.69 14.24,15.28 14.10,14.80 13.96,14.32 13.98,13.82 14.00,13.32 14.18,12.85 14.36,12.39 14.68,12.00 15.00,11.62 15.00,11.62 15.00,11.62 18.53,9.25 22.06,6.88 26.85,8.06 31.64,9.25 36.68,12.22 41.72,15.20 46.36,20.33 50.99,25.45 54.01,33.42 57.02,41.38 54.68,47.31 52.33,53.24 46.96,57.26 41.58,61.27 34.98,61.51 28.37,61.75 20.66,58.73 12.95,55.71 4.48,48.05 -3.98,40.39 -6.24,33.26 -8.50,26.12 -8.41,20.98 -8.32,15.84 -7.43,11.36 -6.54,6.89 -4.68,2.78 -2.83,-1.33 -2.63,-1.65 -2.42,-1.97 -2.15,-2.23 -1.88,-2.49 -1.56,-2.68 -1.23,-2.87 -0.87,-2.98 -0.51,-3.08 -0.13,-3.10 0.24,-3.11 0.61,-3.04 0.98,-2.97 1.32,-2.81 1.66,-2.64 1.95,-2.41 2.24,-2.17 2.47,-1.87 2.70,-1.57 2.85,-1.22 3.00,-0.87 3.06,-0.50 3.12,-0.13 3.09,0.24 3.06,0.61 2.94,0.97 2.83,1.33 2.83,1.33 L 2.83,1.33 Z"/></g><g stroke-linecap="round" transform="translate(616.666748046875 292.49998474121094) rotate(0 137.49996948242188 164.99996948242188)"><path d="M172.5 41.25 C189.12 61.49, 203.5 80.66, 240.5 123.75 M172.5 41.25 C194.33 67.34, 213.54 92.36, 240.5 123.75 M240.5 123.75 C276.26 163.2, 276.53 163.01, 240.5 206.25 M240.5 123.75 C276.73 163.75, 274.44 164.04, 240.5 206.25 M240.5 206.25 C217.59 235.5, 191.16 263.84, 172.5 288.75 M240.5 206.25 C219.1 233, 197.9 257.19, 172.5 288.75 M172.5 288.75 C137.84 329.03, 136.48 330.21, 103.5 288.75 M172.5 288.75 C138.52 330.14, 138.38 329.71, 103.5 288.75 M103.5 288.75 C81.51 261.68, 56.73 230.18, 34.5 206.25 M103.5 288.75 C84.8 269.12, 68.15 247.35, 34.5 206.25 M34.5 206.25 C-0.6 164.18, 1.9 166.9, 34.5 123.75 M34.5 206.25 C-0.44 163.93, -0.34 165.02, 34.5 123.75 M34.5 123.75 C48.36 102.53, 68.11 82.71, 103.5 41.25 M34.5 123.75 C50.27 103.81, 66.23 83.45, 103.5 41.25 M103.5 41.25 C137.43 -1.21, 136.53 -0.58, 172.5 41.25 M103.5 41.25 C139.26 -2.1, 137.13 -1.92, 172.5 41.25" stroke="#1e1e1e" stroke-width="2" fill="none"/></g><g stroke-linecap="round" transform="translate(10 248.3332977294922) rotate(0 116.25 136.25)"><path d="M32 0 C73.26 2.4, 118.07 0.12, 200.5 0 M32 0 C74.07 0.72, 118.41 -0.9, 200.5 0 M200.5 0 C220.71 1.73, 230.99 9.39, 232.5 32 M200.5 0 C222.57 2.16, 231.91 11.11, 232.5 32 M232.5 32 C230.17 80.85, 230.73 133.28, 232.5 240.5 M232.5 32 C231.63 75.28, 231.24 119.08, 232.5 240.5 M232.5 240.5 C230.87 262.21, 222.85 272.86, 200.5 272.5 M232.5 240.5 C233.79 260.83, 222.45 273.78, 200.5 272.5 M200.5 272.5 C150.05 273.22, 100.09 274.49, 32 272.5 M200.5 272.5 C164.5 272.92, 128.31 272.32, 32 272.5 M32 272.5 C10.09 271.35, -0.96 260.17, 0 240.5 M32 272.5 C12.68 273.42, 1.74 261.29, 0 240.5 M0 240.5 C-2.36 177.35, -1.07 113.07, 0 32 M0 240.5 C-2.09 158.95, -1.18 77.81, 0 32 M0 32 C-0.34 10.09, 11.57 -0.39, 32 0 M0 32 C2.02 11.15, 11.39 1.85, 32 0" stroke="#1e1e1e" stroke-width="2" fill="none"/></g><g stroke-linecap="round"><g transform="translate(261.66668701171875 396.6985681604528) rotate(0 181.09845445225693 22.3325994090333)"><path d="M-1.1 -0.45 C59.16 6.84, 300.7 37.04, 361.2 44.43 M0.53 -1.74 C61.18 5.69, 303.31 38.09, 363.38 45.85" stroke="#1e1e1e" stroke-width="2" fill="none"/></g><g transform="translate(261.66668701171875 396.6985681604528) rotate(0 181.09845445225693 22.3325994090333)"><path d="M338.98 51.26 C344.81 48.35, 351.79 48.04, 363.38 45.85 M338.98 51.26 C344.92 50.69, 350.67 49.46, 363.38 45.85" stroke="#1e1e1e" stroke-width="2" fill="none"/></g><g transform="translate(261.66668701171875 396.6985681604528) rotate(0 181.09845445225693 22.3325994090333)"><path d="M341.21 34.3 C346.53 35.97, 352.91 40.26, 363.38 45.85 M341.21 34.3 C346.64 37.72, 351.86 40.49, 363.38 45.85" stroke="#1e1e1e" stroke-width="2" fill="none"/></g></g><mask/><g stroke-linecap="round"><g transform="translate(750.8333129882812 629.9999847412109) rotate(0 -126.6666259765625 87.5)"><path d="M-0.06 0.43 C-42.19 29.64, -211.57 146.48, -253.8 175.69 M-1.55 -0.39 C-43.78 28.43, -212.88 144.91, -254.99 173.94" stroke="#1e1e1e" stroke-width="2" fill="none"/></g><g transform="translate(750.8333129882812 629.9999847412109) rotate(0 -126.6666259765625 87.5)"><path d="M-240.49 153.57 C-242.8 157.16, -245.47 162.21, -254.99 173.94 M-240.49 153.57 C-245.76 161.46, -250.45 167.6, -254.99 173.94" stroke="#1e1e1e" stroke-width="2" fill="none"/></g><g transform="translate(750.8333129882812 629.9999847412109) rotate(0 -126.6666259765625 87.5)"><path d="M-230.79 167.65 C-235.24 168.22, -239.99 170.24, -254.99 173.94 M-230.79 167.65 C-239.53 170.49, -247.73 171.52, -254.99 173.94" stroke="#1e1e1e" stroke-width="2" fill="none"/></g></g><mask/><g stroke-linecap="round"><g transform="translate(95.00006103515625 536.6666717529297) rotate(0 130.41665649414062 126.25)"><path d="M-0.45 -1.18 C43.01 40.93, 217.71 210.33, 261.45 252.73 M1.51 0.82 C44.81 42.54, 217.44 208.98, 260.83 250.73" stroke="#1e1e1e" stroke-width="2" fill="none"/></g><g transform="translate(95.00006103515625 536.6666717529297) rotate(0 130.41665649414062 126.25)"><path d="M237.98 240.59 C244.19 245.34, 254.71 249.87, 260.83 250.73 M237.98 240.59 C246.19 243.36, 253.75 246.9, 260.83 250.73" stroke="#1e1e1e" stroke-width="2" fill="none"/></g><g transform="translate(95.00006103515625 536.6666717529297) rotate(0 130.41665649414062 126.25)"><path d="M249.84 228.28 C251.83 237.38, 258.1 246.31, 260.83 250.73 M249.84 228.28 C253.84 235.61, 257.08 243.63, 260.83 250.73" stroke="#1e1e1e" stroke-width="2" fill="none"/></g></g><mask/><g stroke-linecap="round" transform="translate(351.66668701171875 773.3332977294922) rotate(0 81.25 70.41668701171875)"><path d="M102.5 17.75 C110.89 27.24, 121.3 34.45, 142 53.25 M102.5 17.75 C115.95 29.12, 130.24 42.31, 142 53.25 M142 53.25 C160.51 70.51, 163.51 70.18, 142 88.75 M142 53.25 C160.46 70.23, 160.35 70.09, 142 88.75 M142 88.75 C129.31 97.99, 116.11 108.43, 102.5 123.08 M142 88.75 C130.98 97.29, 121.09 106.47, 102.5 123.08 M102.5 123.08 C80.18 140.31, 81.23 142.47, 61.5 123.08 M102.5 123.08 C81.82 139.2, 84.25 139.72, 61.5 123.08 M61.5 123.08 C52.31 115.3, 37.27 104.4, 20.5 88.75 M61.5 123.08 C50.2 113.7, 40.71 106.14, 20.5 88.75 M20.5 88.75 C0.18 72.36, 0.34 71.73, 20.5 53.25 M20.5 88.75 C-0.69 72.75, 1.33 70.48, 20.5 53.25 M20.5 53.25 C29.59 46.83, 41.28 38.67, 61.5 17.75 M20.5 53.25 C33.15 42.75, 44.99 32.64, 61.5 17.75 M61.5 17.75 C81 1.14, 83.84 1.41, 102.5 17.75 M61.5 17.75 C83.19 -0.09, 80.38 1.41, 102.5 17.75" stroke="#1e1e1e" stroke-width="2" fill="none"/></g></svg>